/* XPM */
static char *cf4c852a63024ba0b0b585ca50a04cbenbpXdkV7Ad0U4HEA[] = {
/* columns rows colors chars-per-pixel */
"64 64 75 1 ",
"  c #5B3542",
". c #5F3541",
"X c #5C3641",
"o c #5E3641",
"O c #5D3442",
"+ c #5E3442",
"@ c #5E3543",
"# c #5F3543",
"$ c #5C3643",
"% c #5F3742",
"& c #5D3444",
"* c #5F3445",
"= c #5E3545",
"- c #5D3744",
"; c #5C3645",
": c #5F3644",
"> c #5F3646",
", c #603644",
"< c #784349",
"1 c #7A4348",
"2 c #7A4349",
"3 c #7A424B",
"4 c #7C4349",
"5 c #7C434A",
"6 c #794549",
"7 c #7B4449",
"8 c #79444A",
"9 c #7B444A",
"0 c #7A454B",
"q c #7D444B",
"w c #7C454B",
"e c #7B434C",
"r c #7C434C",
"t c #79444C",
"y c #7A454D",
"u c #7C444D",
"i c #9F5B52",
"p c #9F5C53",
"a c #9F5C54",
"s c #A15B51",
"d c #A05A52",
"f c #A15B53",
"g c #A05C51",
"h c #A05C53",
"j c #A25C52",
"k c #A05B54",
"l c #A15D54",
"z c #A15C55",
"x c #A25C54",
"c c #BE7757",
"v c #BD7857",
"b c #BE7856",
"n c #BF7957",
"m c #BF7858",
"M c #BE7958",
"N c #BF7A59",
"B c #BF785A",
"V c #C07757",
"C c #C17857",
"Z c #C1775A",
"A c #C17858",
"S c #C07959",
"D c #C27959",
"F c #C07A58",
"G c #C0795B",
"H c #EFA15F",
"J c #F0A15F",
"K c #EEA060",
"L c #EFA161",
"P c #EDA261",
"I c #EFA163",
"U c #F0A061",
"Y c #F0A260",
"T c #F1A162",
"R c #F0A262",
/* pixels */
"XXXX:qqSmRLLLLL99959qqq:XXXX::XXXX:hfmmSmmmLL9999XXXX:X:XXXX:XX:",
"XXXX:::q99999999999q99q:XXXqu:XXXhhmmmmmmmmLLy299XXXXXX:XhfhhXXX",
"XXXXXX:q99q999q99999992XXXX9qXXXXhhmmmnmmmmLRe999XXX::::XhhihXXX",
"XXXXXXX99999999q99999XXXXXXXXXXX:hhSnmmRL99999999XXXX::limmmmcm:",
"XXXXXXXq999999229999u:XXXXXXX:::XfhnmmmRL9e992999XXXXXXhhnmmmmmX",
"XXXXXX:XXX:9999XX:XX:XXX:XXXXXX:XXXmmHR9999995999XXXXXXmnmmLL99X",
"XX:X::X:XXX9592XXXXX,::X::XXXXX:XXXmSLL5999999959X:::XXmmmmRL99X",
"qXXX::::X:XX:X::XXXX:::hlhl:XX:::XX99992e999999XXX:::mmnmRR99999",
"u:::XXXXXXXX::::XXXXXXXhlllXXXX::XX9q999q999999:XX:XXnmmmRLqq999",
":::Sm99XXXXX::::XXXXXhhSS9999XXXX:XXX99999999:::XXX,X9999999q99X",
"XX:mZ9q:::::XXXXX:XXXphmS2999XXXXX::X59999999XXX::XXX9959255999X",
"XXX99qqX::::XXXX::XhfVmLL999qXXX::X::XX5999:XX:X::XXXXXe99999XXX",
"XX:qqq9:::XXXXXX:::fhmmLR9992::XXXX::X:q999XXXXX::XXXX:q99599:XX",
"XX::XX:XX:X9q::XXllSmHL999999:X:XX::X:::X:XXXXXhfXXXXXX:XXXX:::X",
"XXX:XXXXXXX2q::XXhlmmRL999299XXXXXXX::X:XXXX:XXhfXXXX:XXXXXX:::X",
"XX::XXXXXXXX::XX:hhLL292999X:XX,X95XXXXXXXXXXhhmZRH95XX::XXX::XX",
"XXX:::XXX:XX,:XXXhhLR999999XX:XX:29XXX:::XXXXhhmmLH99X,XXXXXXXX:",
"XXX::XXXXX:X,::XX99999q9999XXXXXX:XXXX:lilhhhmmmmLL9999XXXXSm99X",
"XX::XX:XX:XX::XXX999q9qq99uXXXX:::::XXXlfahhpmmmmLL9999XXXXSm99X",
"XX:::XXX::XX:X:XXXX9qq9XXXXX:XXX::X,XhhSmmmmmSmLL299999XXXX9299X",
"XXX:XXXX::::XXXXXX:9q99XXX::::::XXXXXfkcmmcmSnmRRe99999X:::q99qX",
":::khlhhhX::XXXXX::::XXX,::XX:XXXXXhhmmmmmmLHLH9q999999::X:,XXXX",
"XX:khlhhhXXX:XXXXXX:XXXX::XXXXXXXXXhhmmmmmmLLLL99999592XXX::::::",
"Xffcmmmmm:XX:,XXX:X:XX:X,+XXXX:XXXXnnLHLLLLe99q959999X:XXX::::+:",
":hhmmmmmSXXXXX::XXXXXX:::XXXX:::XXXmmLLLLLLe999999999XXX,:::X:X:",
"Xhhmmmmmmmm::XX:Xe995XX:XXXX::::::XXX9925e999999999:XXXX:59:XX:X",
"XfkmmnScSmmX:XX:X9292+::XXXXXX:::,X:X99q99q99929999XXXXX:59XXXXX",
":mmmcSnmmLLXXXXXX99y9X::XXXXXX:,::::XXXq9e99999XXXXX:XXX:XXXXXXX",
"XmmmmmmmSJLX::XXX99qqXXXX:XXXX:XXXX+:::qe9q9922XXXXX::::XXXX::XX",
"XnmmnLLLL99X:X:XXXX:XXXXXhhhfXXXXX&X,::XXXXX::XXXX:X:::,XXXX:::X",
"XmmmmLRLR99:::XXXX::XXXXXhllf+XXXXXXX:XXXXXX::::X:XXXX,:XXX::,XX",
"XLLLL9e999eqqXXXXXX:XXXhhnmmmRR:XXXX::XXX:XX::XXXX:hhhfhhhh:::XX",
"XHJLL95999959XXX:XXX:XXhhmmSmLHXXXXXXXXXXXXXXXXXX:XhhhhhhahXXXXX",
"X9999992e99XXXXXX:X9q:XnmmSRL9999XXXXXXX::XXXXXX:hlhhSmmmcmmmXXX",
"X99599q9999XX:XXXX:9qXXSmmmLL9999XXXXX::+::::,XXXhhfhmmmmmnmSXXX",
"XXX9qqe99XX::XXXXXXXXXXLLLR9e999qXXXXXXq5::::::fhmmmmSmmmmmmSnmX",
"XX:qq9q99XXX:,::XX:,::,LLLL59999q:XXXX:q9XXXXX:lhmnmcnmmmmmmmcmX",
"XX::X:X:XXXX:lllhXX:XX:999999999q:XXXX::X:XX:hpmmmmmmmmcmmmmmLLX",
"XXX:XXXXXXXXXlllfXXX::X9q9q99999q::XXX:::,XXXhhmmmmmmSmcmSmmmRR:",
"9XX,XXX::::hhmmmmRHXX:XXX999999X::XXXX::::XXXhhmmmmmmmmmmmmRL95q",
"q:::XXXXX:XhhmmmSLLXXXX::999q9rXXX:XXXXX,:XX:ihmnmmmmmmCmmmLL999",
"9qq:XXXX:lhmcmmRLq959XXX::XXXX,:XX:XXXXX::XXXhlmmmmmnmmmcmmLH9q9",
"995:XXXX:llmmmVLL9999X:::XXXXX,XX:::XXXX:X::XhhmScmmmmmmmSnRJ999",
"9q5:XXX::mmLLLL999999XXX::XX:XX:XXXhhhfhhhhXXXXSmmmmmmcmmLL99999",
"9q9X::::XmmRLLL995999XXX:XXXXXXXXXXhhhhhhhhXXX mmSmmmSmmSLL29999",
"999X::::XXX99r99995X:XXX:nneqX,XXX:hhmmmmLJX:XXmmmmmmmmHL9299999",
"999X::XXXXX9999999q:X:XXXnS99XXX:::lfmmmmLLXXXXSmmmmmmmLL959959e",
"9XXXXXXXXXXXX999q:::::XXX9999X:X:SSSSmmLL999qX:XXmmLLLLq99999999",
"qXXXXX:::::XX5q99XXXX::X:qqqq:XX:mSmmmmLR2999XXXXmmLHRLe92999999",
"qXXX::::::XXX::X::XXXX:XXX::X:XhhmmSmLL999999X:XX:X99e9999929999",
"5XXXX:X:::::XXXXXXXX:X:XXXXX:X:fhmmmmLL929999XXX:::9999999999999",
"XX:XX99:::XXXXXhhihflSZ:XX:XXXXmnLLLL299999XXXXX::::X99299929XXX",
"XX:::99X:XXX:XXhhhhfhnmXXX:XXXXmmLLLL9r9ue9XXXXX::::Xq9999922XXX",
":X::XXXX:XXX:hhmmmmnnLLX::XX:XXnm9999999qq9XXXXX:,:XXXXXXXXXXXXX",
"XXXX::XXXXXXXhhSmmmmmHHX:::,XXXnm9999999qqq:XXXX:XXXXXXX:::XXXXX",
":X:X::XXXfhhhmmmmmSLL992qXXXXXXXX9929999r::,:XXXXXX::X:X::::X:XX",
"X:XX:XXXXfllfnmmmSmLL9999XX:::::X999992q9XXXX:X:XXXXXXX:::::::::",
"XX:XXXXhlSSmmSmmmmmHL999q9qX:X::XXX999q:XXXX:X:::99XXX:X:5q5u::X",
"X:::XXXhhSSmmmmmmmSLL999q29XXXX XXX9999XX:XXXX:X,59:XXXXX9595:XX",
"::::XXXhhmSmmmmmmLL95999q59:X:XX:XXXXXXXXXXhhX:X:XXXXX:XX9999XXX",
":X::::XhhnmmmmmmmLR99295q99XXXXXXXXX:XXX:,XhiXXXXXXXX:::Xqqq9:XX",
"XXXX:lhmmmmmSmmLL9999q999XXX:::XXX:XX:XflSmhi99X::XXXX::XX:X::XX",
"::XX:hlmmmmnmmmLLu99999q9XXX,::XX::X,XXlkSmhh99X::XXXXX:XXXX::XX",
"XXXX:55mmLLLLHLee999999XXXXX:::XXXXkhmSSSSmHR9999XXX:,::XXXX::XX"
};
