/* XPM */
static const char *MjIwNF93MDUzX24wMDRfMTJfbWVkaWNoYXJhY3RlcnNfcDFfMTIrJTI4MiUyOQ__[] = {
/* columns rows colors chars-per-pixel */
"64 64 172 2 ",
"   c #151517",
".  c #1A1617",
"X  c #171618",
"o  c #1A1718",
"O  c #1B1A1B",
"+  c #271A17",
"@  c #2B1A17",
"#  c #241B1B",
"$  c #2B1E1D",
"%  c #321D17",
"&  c #3D1C11",
"*  c #321F1B",
"=  c #2E201E",
"-  c #34211D",
";  c #3A221D",
":  c #252226",
">  c #2E2221",
",  c #2C272B",
"<  c #2D2A2E",
"1  c #332523",
"2  c #3B2622",
"3  c #352826",
"4  c #3B2A26",
"5  c #322728",
"6  c #322B2C",
"7  c #3A2D2C",
"8  c #3D302F",
"9  c #2E2D31",
"0  c #332E31",
"q  c #323033",
"w  c #3C3334",
"e  c #37353B",
"r  c #3B363A",
"t  c #3C393D",
"y  c #401E14",
"u  c #442114",
"i  c #492314",
"p  c #432319",
"a  c #4C291C",
"s  c #502614",
"d  c #522916",
"f  c #542C19",
"g  c #663417",
"h  c #633419",
"j  c #6A3618",
"k  c #69381A",
"l  c #713D1B",
"z  c #422B24",
"x  c #492B22",
"c  c #432F2A",
"v  c #44322D",
"b  c #4C332C",
"n  c #423432",
"m  c #483632",
"M  c #463A36",
"N  c #4B3A35",
"B  c #443B3A",
"V  c #4B3D3B",
"C  c #533C37",
"Z  c #543E38",
"A  c #77421D",
"S  c #7C451E",
"D  c #4C403F",
"F  c #53433E",
"G  c #5A473F",
"H  c #724222",
"J  c #7C4720",
"K  c #7F4F2D",
"L  c #3E3C41",
"P  c #423F42",
"I  c #434245",
"U  c #4D4342",
"Y  c #46464A",
"T  c #48474B",
"R  c #4C4A4D",
"E  c #524543",
"W  c #5A4641",
"Q  c #534946",
"!  c #5C4A44",
"~  c #544C4B",
"^  c #5A4D4A",
"/  c #56514F",
"(  c #5C514E",
")  c #4D4D51",
"_  c #534E51",
"`  c #4F5055",
"'  c #555354",
"]  c #595655",
"[  c #5C5452",
"{  c #595857",
"}  c #555559",
"|  c #5A5659",
" . c #57585D",
".. c #5A5A5A",
"X. c #5B5B5B",
"o. c #5A5A59",
"O. c #5D5C5B",
"+. c #5C5C5C",
"@. c #5B5A5B",
"#. c #624D43",
"$. c #635046",
"%. c #6C5345",
"&. c #63524A",
"*. c #6C5548",
"=. c #705546",
"-. c #715749",
";. c #72594B",
":. c #615552",
">. c #625653",
",. c #645957",
"<. c #625F5E",
"1. c #645C5B",
"2. c #695E5B",
"3. c #60605F",
"4. c #66605E",
"5. c #6C615F",
"6. c #5C5D62",
"7. c #625E61",
"8. c #5F6065",
"9. c #616261",
"0. c #646464",
"q. c #676767",
"w. c #676665",
"e. c #646364",
"r. c #6A6361",
"t. c #6B6463",
"y. c #636469",
"u. c #67696E",
"i. c #696969",
"p. c gray42",
"a. c #6E6E6E",
"s. c #6B6B6C",
"d. c #716663",
"f. c #736966",
"g. c #726C6B",
"h. c #786F6D",
"j. c #78716E",
"k. c #696C71",
"l. c #6E7176",
"z. c #727372",
"x. c #727271",
"c. c #767574",
"v. c #747474",
"b. c #7A7473",
"n. c #7C7977",
"m. c #797779",
"M. c #7E7D7D",
"N. c #7B7A7A",
"B. c #80471F",
"V. c #82491F",
"C. c #844B21",
"Z. c #824E28",
"A. c #875937",
"S. c #885B38",
"D. c #84654F",
"F. c #7C7E82",
"G. c #7E8287",
"H. c #838383",
"J. c #868484",
"K. c #888585",
"L. c #828589",
"P. c #868A8F",
"I. c gray56",
"U. c #878B90",
"Y. c #8B8E93",
"T. c #8D9094",
"R. c #949596",
"E. c #93969A",
"W. c #989B9F",
"Q. c #9C9FA3",
"!. c None",
"~. c black",
/* pixels */
"!.!.!.!.!.!.!.!.!.!.!.!.!.!.!.!.!.!.!.!.!.!.!.!.!.- ; 1 1 - 1 > > - > 1 1 1 1 - ; !.!.!.!.!.!.!.!.!.!.!.!.!.!.!.!.!.!.!.!.!.!.!.",
"!.!.!.!.!.!.!.!.!.!.!.!.!.!.!.!.- = $ - * 1 1 - > E M D ,.E m f.d.m ^ t.m ( 5.7 n w 1 - 1 - !.!.!.!.!.!.!.!.!.!.!.!.!.!.!.!.!.!.",
"!.!.!.!.!.!.!.!.!.!.!.!.!.!.!.* 8 f.h.n n c.2.: :.w.[ ^ 9.] W w.3.m ^ +.V [ ..v b.a.a.4 ^ U 1 = = - !.!.!.!.!.!.!.!.!.!.!.!.!.!.",
"!.!.!.!.!.!.!.!.!.!.!.!.!.> 6 n V H.x.:.D ..' > ^ c.E E ..^ N ....m / 9.v ' ..4 @.....z x.w.V f.( 1 - !.!.!.!.!.!.!.!.!.!.!.!.!.",
"!.!.!.!.!.!.!.!.!.!.!.- = U n.b.2 w.9.Q n ....3 ~ i.U U ..^ N +.9.N <.x.v / ..; ..w.O.c +.+.b M.O.M 7 7 - !.!.!.!.!.!.!.!.!.!.!.",
"!.!.!.!.!.!.!.!.!.- 7 ^ w E w.+.v ^ M./ 4 +.x.n E ..U D ' Q N w.a.V ^ ..v / { ; ..i.U M w.w.F i.] v g.r.w > - !.!.!.!.!.!.!.!.!.",
"!.!.!.!.!.!.!.!.; 8 h.x.,.4 / ..D M ..] - <.a.M E ..U U I U v { { V D ' c ~ ' - { ..n Q x.~ ^ +.E W i...V D U 1 - !.!.!.!.!.!.!.",
"!.!.!.!.!.!.; 1 - 4 4.....U N 9.] 4 { ' 3 D ..7 M Y w V { U 4 t I 4 0 t 4 I I 2 T T z ' ..V / ' m r.+.{ m t.E n 1 ; !.!.!.!.!.!.",
"!.!.!.!.!.; 6 0 < n [ Q ....N ^ +.4 B T 1 7 B 1 1 0 1 1 0 6 $ 6 5 $ > 1 $ 7 7 - 6 q - r I 4 ' T m p.w.V c ^ n < 0 6 - !.!.!.!.!.",
"!.!.!.!.!.- 6 9 < U E.g.Q ..~ 4 { 7 - 4 > # # O o . . . .               X . . o . o # # $ % L L N m.' 2 U G.U < 9 6 1 * !.!.!.!.",
"!.!.!.!.!.- 6 < 9 U P.W.t.' ' 1 7 $ #   X                                             X o O + @ r ' w N G.P.U 9 < < n > !.!.!.!.",
"!.!.!.* 7 V < 9 9 U P.U.E.Q I 1 o X         X O O O !.!.!.!.!.!.!.!.!.!.!.!.!.!.!.!.        X O $ 3 2 m.U.P.U 9 9 < 7 $ = !.!.!.",
"!.!.!.1 g.Q < < < U ,.2.T.t.+ .     X O !.!.!.!.!.!.!.!.!.!.!.!.!.!.!.!.!.!.!.!.!.!.!.!.!.!.      o M P.r.,.E 9 < 6 - t.^ = !.!.",
"!.!.!.$ ~ ,., < q U &.u ,.K.#   O O !.!.!.!.!.!.!.!.!.!.!.!.!.!.!.!.!.!.!.!.!.!.!.!.!.!.!.!.!.    . q.,.u #.E q < < [ 9...7 * !.",
"!.!.- > = n < 9 9 U ;.h a N.w X !.!.!.!.!.!.!.!.!.!.!.!.!.!.!.!.!.!.!.!.!.!.!.!.!.!.!.!.!.!.!.!.!.# g.x h -.E 0 9 < [ w...B = !.",
"!.- V j.^ $ < 9 9 U ;.B.d 5.!.!.!.!.!.!.!.!.!.!.!.!.!.!.!.!.!.!.!.!.!.!.!.!.!.!.!.!.!.!.!.!.!.!.!.!.,.d B.-.U 9 9 < Q { T 7 = !.",
"!.> ] i.g.E < 9 9 U ;.V.h W !.!.!.!.!.!.!.!.!.!.!.!.!.!.!.!.!.!.!.!.!.!.!.!.!.!.!.!.!.!.!.!.!.!.!.!.W h C.-.E 9 9 < n 7 - 1 1 - ",
"!.1 ' 0.c.[ < 9 9 U ;.B.k b R.!.!.!.!.!.!.!.!.!.!.!.!.!.!.!.!.!.!.!.!.!.!.!.!.!.!.!.!.!.!.!.!.!.!.!.b h C.-.U 9 9 < 4 V [ ] U = ",
"!.$ w T { E 6 < 9 U ;.B.l x H.!.!.!.!.!.!.!.!.!.!.!.!.!.!.!.!.!.!.!.!.!.!.!.!.!.!.!.!.!.!.!.!.!.!.!.x l C.-.U 9 < 6 ~ a.+...U = ",
"- > 1 $ 1 7 < 9 9 U ;.B.A p b.!.!.!.!.!.!.!.!.!.!.!.!.!.!.!.!.!.!.!.!.!.!.!.!.!.!.!.!.!.!.!.!.!.!.h.p A C.-.U < 9 < Q @.U t 7 1 ",
"= U <.] D 4 < 9 9 U *.B.S u t.!.!.!.!.!.!.!.!.!.!.!.!.!.!.!.!.!.!.!.!.!.!.!.!.!.!.!.!.!.!.!.!.!.!.g.u A B.%.E 9 9 < - $ # + # - ",
"> ) m.c.a.~ , 9 < U *.B.S u 5.!.!.!.!.!.!.!.!.!.!.!.!.!.!.!.!.!.!.!.!.!.!.!.!.!.!.!.!.!.!.!.!.!.!.t.u A B.%.U < 9 , m U / [ V = ",
"1 ) ..+.+.U < < 9 U %.B.S u 2.!.!.!.!.!.!.!.!.!.!.!.!.!.!.!.!.!.!.!.!.!.!.!.!.!.!.!.!.!.!.!.!.!.!.r.u S B.%.U 9 < < Q c.H.i.U $ ",
"> 7 w r t 7 < 9 9 U %.B.S p 1.!.!.!.!.!.!.!.!.!.!.!.!.!.!.!.!.!.!.!.!.!.!.!.!.!.!.!.!.!.!.!.!.!.!.e.p S S %.U 9 9 < D ..{ ' B > ",
"$ n E F ! N , < 9 U *.B.B.z e.!.!.!.!.!.!.!.!.!.!.!.!.!.!.!.!.!.!.!.!.!.!.!.!.!.!.!.!.!.!.!.!.!.!.w.z S S %.E 9 < , - - % % @ 1 ",
"= t ..i.c./ 6 9 9 U *.B.S v q.!.!.!.!.!.!.!.!.!.!.!.!.!.!.!.!.!.!.!.!.!.!.!.!.!.!.!.!.!.!.!.!.!.!.u.v S S *.E 9 9 6 :.H.K.N.2.> ",
"= e ) R R B 6 < < U &.H J V k.!.!.!.!.!.!.!.!.!.!.!.!.!.!.!.!.!.!.!.!.!.!.!.!.!.!.!.!.!.!.!.!.!.!.k.V S H &.U < < 6 U x.a.....3 ",
"$ > 1 - - ; < 9 9 U y.6.@.} k.!.!.!.!.!.!.!.!.!.!.!.!.!.!.!.!.!.!.!.!.!.!.!.!.!.!.!.!.!.!.!.!.!.!.l.} @.6.y.E 9 0 < 3 7 7 7 7 $ ",
"= n E ] a.[ 6 9 9 U 6.` ) T } !.!.!.!.!.!.!.!.!.!.!.!.!.!.!.!.!.!.!.!.!.!.!.!.!.!.!.!.!.!.!.!.!.!.} T ) ) 6.E 9 9 6 8 E ^ ,.Q > ",
"= P { ....U < 9 9 U +.+.+.@.y.!.!.!.!.!.!.!.!.!.!.!.!.!.!.!.!.!.!.!.!.!.!.!.!.!.!.!.!.!.!.!.!.!.!.y.@.+.+.@.E 9 9 < E g.x.w.9.1 ",
"$ 6 r P I w 6 9 9 U ! f f V u.!.!.!.!.!.!.!.!.!.!.!.!.!.!.!.!.!.!.!.!.!.!.!.!.!.!.!.!.!.!.!.!.!.!.q.D a f W E 9 9 < V +.+.{ R > ",
"- > 3 1 1 4 6 9 9 U ! j g F q.!.!.!.!.!.!.!.!.!.!.!.!.!.!.!.!.!.!.!.!.!.!.!.!.!.!.!.!.!.!.!.!.!.!.e.E g j #.U 9 9 < 1 1 1 3 1 $ ",
"$ U 1.4.r./ < 9 9 U #.S A F 9.!.!.!.!.!.!.!.!.!.!.!.!.!.!.!.!.!.!.!.!.!.!.!.!.!.!.!.!.!.!.!.!.!.!.e.F A S #.U 9 9 < m D E ^ V = ",
"= I } ....^ < 9 9 U #.B.S F 7.!.!.!.!.!.!.!.!.!.!.!.!.!.!.!.!.!.!.!.!.!.!.!.!.!.!.!.!.!.!.!.!.!.!.e.W S B.#.U 9 9 < E w.0.w.<.= ",
"= e L L ) D 6 9 9 U #.B.S W 7.!.!.!.!.!.!.!.!.!.!.!.!.!.!.!.!.!.!.!.!.!.!.!.!.!.!.!.!.!.!.!.!.!.!.7.W S B.#.U 9 9 < D ' ' R I = ",
"$ 1 7 7 7 4 , 9 9 U #.B.S F <.!.!.!.!.!.!.!.!.!.!.!.!.!.!.!.!.!.!.!.!.!.!.!.!.!.!.!.!.!.!.!.!.!.!.7.F A B.#.U 9 9 , 8 r w 0 7 = ",
"= V 2.Q V m < 9 9 U #.B.S F +.!.!.!.!.!.!.!.!.!.!.!.!.!.!.!.!.!.!.!.!.!.!.!.!.!.!.!.!.!.!.!.!.!.!.+.W S B.#.U 9 9 < - 4 n M > - ",
"> { 9.m.x.~ 6 9 9 U &.Z.K ^ +.!.!.!.!.!.!.!.!.!.!.!.!.!.!.!.!.!.!.!.!.!.!.!.!.!.!.!.!.!.!.!.!.!.!.<.^ K Z.#.U 9 9 6 ^ i.i.c.^ = ",
"> R ..+...V < < < U 8.u.y.6.| !.!.!.!.!.!.!.!.!.!.!.!.!.!.!.!.!.!.!.!.!.!.!.!.!.!.!.!.!.!.!.!.!.!.| 6.y.u.8.U < < < n Y { 6.R = ",
"> e I I r 7 6 0 9 U 6.I Y T R !.!.!.!.!.!.!.!.!.!.!.!.!.!.!.!.!.!.!.!.!.!.!.!.!.!.!.!.!.!.!.!.!.!.R T Y I @.E 9 9 0 - @ % - $ $ ",
"$ * z z ; - , 9 9 U 6.8.| | @.!.!.!.!.!.!.!.!.!.!.!.!.!.!.!.!.!.!.!.!.!.!.!.!.!.!.!.!.!.!.!.!.!.!.| | | 6.6.U 9 9 , ^ g.g.N.5.> ",
"3 0.x.I.R.1.< 9 9 U E i s D +.!.!.!.!.!.!.!.!.!.!.!.!.!.!.!.!.!.!.!.!.!.!.!.!.!.!.!.!.!.!.!.!.!.!.@.U s i D U 9 9 < U ....+.i.> ",
"1 R ..i.c.U < 9 9 U W j j E @.!.!.!.!.!.!.!.!.!.!.!.!.!.!.!.!.!.!.!.!.!.!.!.!.!.!.!.!.!.!.!.!.!.!.| E j j G U 9 9 < U ' { ' R > ",
"> w Y R R r < 9 9 U ! S S ! +.!.!.!.!.!.!.!.!.!.!.!.!.!.!.!.!.!.!.!.!.!.!.!.!.!.!.!.!.!.!.!.!.!.!.@.^ A B.! U 9 9 < 4 7 0 0 6 = ",
"* $ 3 3 4 4 < 9 9 U #.B.S ^ @.!.!.!.!.!.!.!.!.!.!.!.!.!.!.!.!.!.!.!.!.!.!.!.!.!.!.!.!.!.!.!.!.!.!.@.^ S C.#.U 9 9 < F ( Q ! F > ",
"= M ~ ,.t.~ < 9 9 U #.B.S ^ | !.!.!.!.!.!.!.!.!.!.!.!.!.!.!.!.!.!.!.!.!.!.!.!.!.!.!.!.!.!.!.!.!.!.| ^ S C.#.U 9 9 < E a.m.c.9.7 ",
"1 { ......U < 9 9 D #.C.S ^ | !.!.!.!.!.!.!.!.!.!.!.!.!.!.!.!.!.!.!.!.!.!.!.!.!.!.!.!.!.!.!.!.!.!.| ^ S C.#.U 9 9 < E x.x.w...8 ",
"> t I R Y w < 9 9 U $.C.S ^ | !.!.!.!.!.!.!.!.!.!.!.!.!.!.!.!.!.!.!.!.!.!.!.!.!.!.!.!.!.!.!.!.!.!.| ^ S C.#.U 9 9 < 7 B U U B 1 ",
"$ = 1 7 7 3 < < < U $.A.D.q.' !.!.!.!.!.!.!.!.!.!.!.!.!.!.!.!.!.!.!.!.!.!.!.!.!.!.!.!.!.!.!.!.!.!.] q.D.S.$.U < < < @ @ @ - - $ ",
"1 [ ^ E [ W 6 9 9 U y.l.k.6._ !.!.!.!.!.!.!.!.!.!.!.!.!.!.!.!.!.!.!.!.!.!.!.!.!.!.!.!.!.!.!.!.!.!._ 6.k.l.y.U 9 9 9 Q f.g.b.n.n ",
"7 ......{ n < 9 9 U 8.@.R ) R !.!.!.!.!.!.!.!.!.!.!.!.!.!.!.!.!.!.!.!.!.!.!.!.!.!.!.!.!.!.!.!.!.!.R ) T  .8.U 9 9 < ^ a.......M ",
"7 L Y R R B < 9 9 D 6.6.@.@.' !.!.!.!.!.!.!.!.!.!.!.!.!.!.!.!.!.!.!.!.!.!.!.!.!.!.!.!.!.!.!.!.!.!.' @.@.6.6.U 9 9 < n I L t I 7 ",
"# $ = $ $ - 6 9 9 V ~ x d Q ' !.!.!.!.!.!.!.!.!.!.!.!.!.!.!.!.!.!.!.!.!.!.!.!.!.!.!.!.!.!.!.!.!.!.' ~ d x ~ U 9 9 0 - * - % @ $ ",
"n 2.,.:.Q V < 9 9 V W l l ^ ' !.!.!.!.!.!.!.!.!.!.!.!.!.!.!.!.!.!.!.!.!.!.!.!.!.!.!.!.!.!.!.!.!.!.' ^ l l W V 9 9 < ^ c.v.c.,.1 ",
"D a.H.H...D < 9 < V #.B.S ! ' !.!.!.!.!.!.!.!.!.!.!.!.!.!.!.!.!.!.!.!.!.!.!.!.!.!.!.!.!.!.!.!.!.!._ ^ A B.#.V < 9 < ~ H.M.+...M ",
"8 R ' ' T r < 9 < V #.B.S ^ ' !.!.!.!.!.!.!.!.!.!.!.!.!.!.!.!.!.!.!.!.!.!.!.!.!.!.!.!.!.!.!.!.!.!.' ^ A B.! V < 9 < w I I I I 7 ",
"$ 3 3 2 1 1 < 9 < V $.B.H :.' !.!.!.!.!.!.!.!.!.!.!.!.!.!.!.!.!.!.!.!.!.!.!.!.!.!.!.!.!.!.!.!.!.!.' [ H S #.D < 9 < 1 3 4 v c $ ",
"M r.4.r.,.D < 9 < V ( =.b.L.e.!.!.!.!.!.!.!.!.!.!.!.!.!.!.!.!.!.!.!.!.!.!.!.!.!.!.!.!.!.!.!.!.!.!.e.L.b.=.( D < 9 < Q r.t.g.g.n ",
"M ....x.x.U < 9 9 V u.Y.Q.E.m.!.!.!.!.!.!.!.!.!.!.!.!.!.!.!.!.!.!.!.!.!.!.!.!.!.!.!.!.!.!.!.!.!.!.m.E.Q.Y.u.V 9 9 < U ....{ ' 7 ",
"1 r r r r 7 < 9 9 V F.T.U.L.t.!.!.!.!.!.!.!.!.!.!.!.!.!.!.!.!.!.!.!.!.!.!.!.!.!.!.!.!.!.!.!.!.!.!.5.L.U.T.F.U 9 9 < 7 t t t w 1 ",
"@ # + + + @ < 9 9 V U.P.M.Z p !.!.!.!.!.!.!.!.!.!.!.!.!.!.!.!.!.!.!.!.!.!.!.!.!.!.!.!.!.!.!.!.!.!.p C N.P.U.U 9 9 < @ # @ $ # @ ",
"!.!.!.!.!.- < 9 9 V F.^ p y !.!.!.!.!.!.!.!.!.!.!.!.!.!.!.!.!.!.!.!.!.!.!.!.!.!.!.!.!.!.!.!.!.!.!.!.u p ^ F.D 9 9 9 - !.% @ !.!.",
"!.!.!.!.!.!.< 9 9 2 p y !.!.!.!.!.!.!.!.!.!.!.!.!.!.!.!.!.!.!.!.!.!.!.!.!.!.!.!.!.!.!.!.!.!.!.!.!.!.!.!.& u 2 9 9 < - !.!.!.!.!.",
"!.!.!.!.!.!.2 - - ; !.!.!.!.!.!.!.!.!.!.!.!.!.!.!.!.!.!.!.!.!.!.!.!.!.!.!.!.!.!.!.!.!.!.!.!.!.!.!.!.!.!.!.!.; - - ; !.!.!.!.!.!."
};
