/* XPM */
static const char *NjR4NjQrQmxhY2tIZWFydDE_[] = {
/* columns rows colors chars-per-pixel */
"64 64 4 1 ",
"  c black",
". c #000001",
"X c #FBFFFF",
"o c None",
/* pixels */
"oooooooooooooooooooooooooooooooooooooooooooooooooooooooooooooooo",
"oooooooooooooooooooooooooooooooooooooooooooooooooooooooooooooooo",
"oooooooooooooooooooooooooooooooooooooooooooooooooooooooooooooooo",
"oooooooooooooooooooooooooooooooooooooooooooooooooooooooooooooooo",
"oooooooooooooooooooooooooooooooooooooooooooooooooooooooooooooooo",
"oooooooooooooooooooooooooooooooooooooooooooooooooooooooooooooooo",
"oooooooooooooooooooooooooooooooooooooooooooooooooooooooooooooooo",
"oooooooooooooooooooooooooooooooooooooooooooooooooooooooooooooooo",
"oooooooooooooooooooooooooooooooooooooooooooooooooooooooooooooooo",
"oooooooooooooooooooooooooooooooooooooooooooooooooooooooooooooooo",
"oooooooooo              oooooooooooooooo              oooooooooo",
"oooooooooo              oooooooooooooooo              oooooooooo",
"oooooooo                  oooooooooooo                  oooooooo",
"oooooooo                  oooooooooooo                  oooooooo",
"oooooo                      oooooooo                      oooooo",
"oooooo                      oooooooo                      oooooo",
"oooo        XX                oooo                          oooo",
"oooo        XX                oooo                          oooo",
"oooo      XX                                                oooo",
"oooo      XX                                                oooo",
"oooo      XX                                                oooo",
"oooo      XX                                                oooo",
"oooo                                                        oooo",
"oooo                                                        oooo",
"oooo                                                        oooo",
"oooo                                                        oooo",
"oooo                                                        oooo",
"oooo                                                        oooo",
"oooo                                                        oooo",
"oooo                                                        oooo",
"oooooo                                                    oooooo",
"oooooo                                                    oooooo",
"oooooooo                                                oooooooo",
"oooooooo                                                oooooooo",
"oooooooooo                                            oooooooooo",
"oooooooooo                                            oooooooooo",
"oooooooooooo                                        oooooooooooo",
"oooooooooooo                                        oooooooooooo",
"oooooooooooooo                                    oooooooooooooo",
"oooooooooooooo                                    oooooooooooooo",
"oooooooooooooooo                                oooooooooooooooo",
"oooooooooooooooo                                oooooooooooooooo",
"oooooooooooooooooo                            oooooooooooooooooo",
"oooooooooooooooooo                            oooooooooooooooooo",
"oooooooooooooooooooo                        oooooooooooooooooooo",
"oooooooooooooooooooo                        oooooooooooooooooooo",
"oooooooooooooooooooooo                    oooooooooooooooooooooo",
"oooooooooooooooooooooo                    oooooooooooooooooooooo",
"oooooooooooooooooooooooo                oooooooooooooooooooooooo",
"oooooooooooooooooooooooo                oooooooooooooooooooooooo",
"oooooooooooooooooooooooooo            oooooooooooooooooooooooooo",
"oooooooooooooooooooooooooo            oooooooooooooooooooooooooo",
"oooooooooooooooooooooooooooo        oooooooooooooooooooooooooooo",
"oooooooooooooooooooooooooooo        oooooooooooooooooooooooooooo",
"oooooooooooooooooooooooooooooo    oooooooooooooooooooooooooooooo",
"oooooooooooooooooooooooooooooo    oooooooooooooooooooooooooooooo",
"oooooooooooooooooooooooooooooooooooooooooooooooooooooooooooooooo",
"oooooooooooooooooooooooooooooooooooooooooooooooooooooooooooooooo",
"oooooooooooooooooooooooooooooooooooooooooooooooooooooooooooooooo",
"oooooooooooooooooooooooooooooooooooooooooooooooooooooooooooooooo",
"oooooooooooooooooooooooooooooooooooooooooooooooooooooooooooooooo",
"oooooooooooooooooooooooooooooooooooooooooooooooooooooooooooooooo",
"oooooooooooooooooooooooooooooooooooooooooooooooooooooooooooooooo",
"oooooooooooooooooooooooooooooooooooooooooooooooooooooooooooooooo"
};
