/* XPM */
static const char *MjIwNF93MDUzX24wMDRfMTJfbWVkaWNoYXJhY3RlcnNfcDFfMTI_[] = {
/* columns rows colors chars-per-pixel */
"64 64 182 2 ",
"   c #1D1616",
".  c #1F1818",
"X  c #231716",
"o  c #251816",
"O  c #2B1916",
"+  c #261B1A",
"@  c #2B1D1C",
"#  c #311B16",
"$  c #3D1D14",
"%  c #321F1B",
"&  c #2E201E",
"*  c #33211D",
"=  c #3A221C",
"-  c #291F20",
";  c #272123",
":  c #2D2221",
">  c #322524",
",  c #3B2622",
"<  c #352827",
"1  c #3B2925",
"2  c #362A2A",
"3  c #3A2D2B",
"4  c #322728",
"5  c #3D302E",
"6  c #362E31",
"7  c #382F31",
"8  c #373134",
"9  c #3C3333",
"0  c #37363B",
"q  c #3A363A",
"w  c #3D3A3D",
"e  c #411E12",
"r  c #4C2414",
"t  c #42241A",
"y  c #4C2B1B",
"u  c #4A2516",
"i  c #502614",
"p  c #542A15",
"a  c #5B2E16",
"s  c #522D1C",
"d  c #5E3017",
"f  c #5E3119",
"g  c #643317",
"h  c #6B3717",
"j  c #643419",
"k  c #6A3718",
"l  c #6C3A1B",
"z  c #653A1F",
"x  c #733E1B",
"c  c #432B24",
"v  c #4A2E24",
"b  c #412F2B",
"n  c #4B3125",
"m  c #43322E",
"M  c #4C352D",
"N  c #503223",
"B  c #543A2C",
"V  c #593D2E",
"C  c #443533",
"Z  c #463836",
"A  c #4C3A35",
"S  c #443B3B",
"D  c #4B3D3B",
"F  c #4C3631",
"G  c #543C33",
"H  c #593F32",
"J  c #523F3A",
"K  c #6B3F21",
"L  c #75411D",
"P  c #7C451E",
"I  c #7F481F",
"U  c #4C403D",
"Y  c #5D4234",
"T  c #53423D",
"R  c #5A463C",
"E  c #5C483E",
"W  c #6C4022",
"Q  c #744423",
"!  c #7D4A24",
"~  c #784623",
"^  c #624534",
"/  c #674933",
"(  c #694A34",
")  c #3E3D41",
"_  c #433F41",
"`  c #434245",
"'  c #4D4443",
"]  c #464648",
"[  c #494749",
"{  c #4C4B4D",
"}  c #4F4847",
"|  c #524543",
" . c #594641",
".. c #534846",
"X. c #5B4B46",
"o. c #524748",
"O. c #544B4A",
"+. c #5B4D4A",
"@. c #56514F",
"#. c #5B514E",
"$. c #4E4E50",
"%. c #524E51",
"&. c #545354",
"*. c #5B5554",
"=. c #5D5857",
"-. c #56565A",
";. c #59575A",
":. c #5A5A5A",
">. c #5B5B5B",
",. c #595859",
"<. c #5E5E5E",
"1. c #5B5B5B",
"2. c #61504C",
"3. c #625554",
"4. c #625856",
"5. c #635D5C",
"6. c #685B58",
"7. c #65615F",
"8. c #6B615E",
"9. c #5C5D61",
"0. c #615E61",
"q. c #5F6165",
"w. c #626161",
"e. c #656565",
"r. c #636264",
"t. c #6B6564",
"y. c #6C6867",
"u. c #64656A",
"i. c #6A6769",
"p. c #67696E",
"a. c #696A69",
"s. c #6D6D6D",
"d. c #6B6B6C",
"f. c #726C6C",
"g. c #736A67",
"h. c #6F706F",
"j. c #74706F",
"k. c #6B6D72",
"l. c #726F71",
"z. c #6E7176",
"x. c #727171",
"c. c #737374",
"v. c #797576",
"b. c #72757A",
"n. c #7A7779",
"m. c #76797E",
"M. c #7B7A7B",
"N. c #777877",
"B. c #80471E",
"V. c #82491F",
"C. c #854C21",
"Z. c #8A4E21",
"A. c #855026",
"S. c #8E5121",
"D. c #925423",
"F. c #975824",
"G. c #985924",
"H. c #777B80",
"J. c #7A7D82",
"K. c #7D8186",
"L. c #7F8388",
"P. c #818284",
"I. c #898685",
"U. c #82868A",
"Y. c #858A8E",
"T. c #8A8A8C",
"R. c #878C90",
"E. c #898D92",
"W. c #8C9196",
"Q. c #8D9298",
"!. c #929395",
"~. c #939599",
"^. c #94989D",
"/. c #999A9C",
"(. c #9A9DA1",
"). c #9DA1A5",
"_. c #A4A6A9",
"`. c #A4A5A9",
"'. c #AAADB0",
"]. c #AEB0B3",
"[. c None",
"{. c black",
/* pixels */
"[.[.[.[.[.[.[.[.[.[.[.[.[.[.[.[.[.[.[.[.[.[.[.[.[.[.[.[.[.[.% % % % % * % % % % [.[.[.[.[.[.[.[.[.[.[.[.[.[.[.[.[.[.[.[.[.[.[.[.",
"[.[.[.[.[.[.[.[.[.[.[.[.[.[.[.[.[.[.[.[.[.* * [.* 4 > 4 3 1 4 Z Z < 3 Z < < Z < & & % % [.[.[.[.[.[.[.[.[.[.[.[.[.[.[.[.[.[.[.[.",
"[.[.[.[.[.[.[.[.[.[.[.[.[.[.[.[.> Z Z 4 < #.D : | y.4.X.f.7.J n.x. .#.s.+.#.s.+.D t.*.C 4 < * % % [.[.[.[.[.[.[.[.[.[.[.[.[.[.[.",
"[.[.[.[.[.[.[.[.[.[.[.[.[.[.* : | I.I.Z ..x.#.: 5.<.@.T :.*.A w.:.A O.:.D O.:.' +.a.w.O. .t.U < < & [.[.[.[.[.[.[.[.[.[.[.[.[.[.",
"[.[.[.[.[.[.[.[.[.[.[.[.* < *.8.D s.<.| D :.O.< *.x.O.D :.&.C :.:.A O.b.F O.:.D U :.<.D *.:.O.2.x.| : > [.[.[.[.[.[.[.[.[.[.[.[.",
"[.[.[.[.[.[.[.[.[.[.% : ; 8.P.a.C >.a.} C :.>.3 @.<.' D :.&.C <.a.| *.s.C O.:.Z ' w.s.m @.<.T g.:.@.1 T 4 * [.[.[.[.[.[.[.[.[.[.",
"[.[.[.[.[.[.[.[.[.> D f.C U <.:.m &.h.O.3 e.s.m O.:.' Z { { M <.a.| | :.C O.:.m } <.,.b <.x.A y.:.C 7.x.O.: 4 * [.[.[.[.[.[.[.[.",
"[.[.[.[.[.[.[.[.% S M.e.=.* ,.:.D D :.O.1 7.e.C O.:.' D ] { m &.:.' C { C } :.3 ` :.O.C r.w.A w.:.1 x.:.&., f.1 : [.[.[.[.[.[.[.",
"[.[.[.[.[.[.* : & < d.:.:.D A a.@.m ,.{ < ' &.1 _ ] 8 C :.O.> 0 ) 9 < w 1 S $.1 w { S D :.&.A :.'  .e.:.D 5.e.:.< & % [.[.[.[.[.",
"[.[.[.[.[.= 4 f.Z ; U :.:.:.c 5.<.3 ` ] > 7 _ > < 8 < , 8 2 > 2 6 > 4 6 > 2 8 > 2 8 1 3 ) S D ] 3 7.w.:.= x.:.{ & 3 4 = [.[.[.[.",
"[.[.[.[.[.& *.e.5.' * } :.:.' m &.1 < 2 : @ @ @ @ @ @ @ + + @ + o + + o + + + + + @ @ @ : * 9 ] = y.s.9 R M.:.< < t.' & [.[.[.[.",
"[.[.[.[.= : ..e.M.w.U * &.:.&.% 3 & + + O o o     X X X o o X o o X X o X o X         X O @ + @ > :.` = n.a.` @ 6.<.<.1 & [.[.[.",
"[.[.[.* < < > ..:.:.:.m , { { 4 + +   X + < C ' 4.f.n.n.v.l.d.5.' 5.i.l.v.n.n.f.5.| C < +   o o @ 3 1 m <.{ < 3 x.U.<.3 : * [.[.",
"[.[.= 3 x.d.+.@ < { :.:.3 & : @   + C t./._.'.'.).~.R.R.R.E.R.J.| b.R.Y.R.Y.E.W.(.'.'._./.f.Z @ o O + 9 { 8 * t.a.&.3 * 6.< = [.",
"[.[.* Z w.x.a.U @ < { ] 9 + o o 3 t./._.).^.R.R.E.R.R.R.R.R.R.K.O.b.E.R.R.R.R.R.R.E.R.~.)._.(.f.> X @ & 8 * | <.&.9 1 7.s.U : [.",
"[.[.= : ' e.s.:...1 > 6 & + . S /._.~.R.R.Y.J.n.f.t.6.4.4.M.R.K.O.m.R.P.5.4.6.t.f.n.M.U.R.R.W.).!.O.+ + + m { ` 3 m y.e.<.,.> = ",
"[.* : : @ 9 [ ,.:.&.1 + +   5 /.(.R.R.U.f.+.M t $ e e e $ f.R.J.O.m.R.n.t e e e $ t M X.t.U.R.R.)._.D   @ 1 ` < 1 v.M.x.w.:.< % ",
"[.> t.M.+.@ @ 9 $.{ 9 &   3 `.^.R.U.3.t e r p p a h a d r f.R.K.O.b.R.n.u a a k g p r p e t X.P.Y.W.].Z X @ % T d.y.<.&.' 9 : * ",
"* C :.e.a.n.m + < w > @ + P.(.W.J.M e a g j L j C.D.P L p f.R.K.| H.R.N.s k P D.D.g k L g r e v Y.W.W.~.& o > &.{ ) 9 > O : 3 4 ",
"@ 5 &.a.s.s.y.D , @ @ X ' _.R.Y.G r a L P P Z.l S.D.C.L p t.R.J.O.m.R.n.s k Z.D.F.g P S.P p a p J Y.R.).*.X @ 2 1 1 3 U 4.5.<.9 ",
"* > w $.:.&.:.:.&.m @ X M.~.R.x.r j x S.B.B.Z.l S.D.C.x p f.R.J.| b.R.n.s k S.D.G.j P S.Z.f l x e t.R.R.!.+ + + F #.5.a.a.:.:.9 ",
"% & O @ 4 8 q ` { 3 @ 3 (.W.Y.v d Z.V.D.B.C.Z.l D.S.C.x p f.R.K.o.m.Y.N.s l S.D.G.j P D.Z.f B.D.p t U.R.).C o 4 :.:.s.e.&.` q 4 ",
": :.7.D < + o % 2 : + ' ).W.v.e x S.Z.S.Z.Z.Z.k D.S.C.l p f.R.J.O.m.E.M.s l Z.F.D.j P D.Z.f S.Z.d e t.R.^.5.X & q 8 4 * @ o + + ",
"< w.M.x.y.t.*.D 1 @ X t.W.E.+.a x D.S.Z.Z.Z.C.l D.D.B.k p f.R.K.O.m.R.n.s k S.F.D.j P D.Z.f Z.S.k a | R.R.n.o & 1 m C 5 9 S D < ",
"3 :.w.r.w.:.<.w.7.& O b.R.R.F L L D.S.C.Z.S.C.x D.D.I k i f.R.L.O.m.R.m.N j S.D.D.k B.D.Z.g C.S.k L c W.R.J.= 4 >.e.f.d.d.M.w.9 ",
"1 w ` ] ` ) ` $.C @ + z.E.R.c Z.L D.S.P Z.D.B.x D.D.P k y d.R.K.| m.E.M.N j S.D.S.l C.D.S.f C.S.k Z.= U.Y.m., : { { &.<.s.e.:.< ",
"@ m 1 c F c * > > @ : z.R.Y.= F.L S.S.P Z.D.B.l D.D.P k y f.R.K.o.m.E.m.N j S.D.S.l B.F.S.d Z.S.k C.t J.R.m.b @ 4 < 3 3 < < 4 : ",
"4 O.5.t.f.t.5.#.& O : b.R.U.= G.P S.S.L Z.S.P x D.D.P k y s.R.K.O.b.R.b.n j S.D.D.k P G.S.a C.S.k B.v b.R.m.m @ 1 > m T X.+.| 1 ",
"4 { <.s.x.<.:.:.4 o : z.Y.K.= G.P S.S.x Z.S.B.L D.D.P l y s.R.J.O.m.R.b.n g S.D.D.k P F.S.a C.S.k V.v b.R.b.m & <.y.M.T.!.M.a.O.",
"4 w ] ` ` ) w w & X 4 k.R.J., G.P S.S.x S.S.B.x D.D.L l y s.R.H.O.b.R.b.n f S.D.D.j C.D.D.a C.S.l C.n b.Y.b.m & [ { $.:.<.<.:.' ",
"+ % % c A G J X.3 + 4 k.R.U.1.5.i.t.5.i.t.r.i.r.5.d.r.0.r.b.E.m.O.z.R.m.1.<.d.t.5.u.t.r.d.r.5.d.w.r.r.b.R.b.3 @ @ : @ @ : @ * @ ",
": U } =.t.r.r.e.Z @ : k.Y.L.k.1.Y.b.u.R.b.p.R.b.u.Y.z.u.L.m.R.m.O.k.R.J.k.u.U.m.u.U.H.u.Y.m.u.U.k.k.U.b.R.b.3 @ < U C Z | O.*.C ",
"4 ` &.:.&.&.&.&.3 @ : k.R.J.u.;.b.p.r.b.p.r.b.p.0.b.p.r.k.b.R.m.O.k.R.H.u.9.b.k.9.b.k.9.b.k.9.b.u.r.b.b.R.b.3 @ O.e.r.a.N.s.w...",
": 6 w ] ) 0 0 w < @ : k.R.J.9 v c v v c v v c c v v c c m k.R.m.O.k.R.m.9 c v v v c v v v c v v c v C b.R.k.3 @ ' $.{ &.1.<.&._ ",
"- @ O O % = , # @ @ : p.E.J.m k a h h a h h g a h h a d v p.R.b.O.k.R.m.m p h h h p j h k i k h p k M z.R.b.3 @ > 4 4 4 : : 4 : ",
"4 w.x.f.j.P.M.d.C @ : u.R.K.m D.x D.D.l D.Z.L P Z.S.l C.B k.R.z.' k.R.b.C j Z.D.D.g P S.F.g B.S.l C.A b.R.k.3 @ m T m 5 5 C C 4 ",
"4 &.:.:.<.x.M.N...@ & q.R.m.C D.L D.D.l F.S.x P Z.S.l C.B p.R.k.D u.R.m.C k S.D.D.g B.D.F.f V.D.x C.J b.R.k.3 & &.a.j.d.y.a.s.| ",
"4 ] { &.<.x.x.w.' & & q.R.J.Z D.x D.D.k F.S.x I Z.S.l C.V p.R.k.D p.R.m.Z k Z.D.D.g P D.D.a C.D.x Z.J b.R.p.3 & O.e.x.:.:.:.:.U ",
": 6 6 q S ` ' S 1 @ & 1.R.J.D S.L D.D.l G.S.L B.Z.S.l C.V k.R.k.Z u.R.J.A x Z.S.D.f B.D.D.a Z.D.x C.T b.R.u.1 @ 9 [ [ ] ` ) 0 3 ",
"+ 1 1 @ @ & & + + + & 9.Y.H.S S.L D.S.k G.S.P C.Z.S.x C.H k.R.p.C u.R.m.Z L S.S.D.d B.D.D.f C.D.L C.R k.R.p.< @ @ * * % # # # + ",
"3 5.d.t.t.t.t.5.| @ @ 1.R.m.D S.P D.S.k G.S.P C.Z.S.x C.Y k.R.k.C u.R.m.A L S.D.S.a C.D.F.f C.D.L Z.T z.W.u.< @ D | O.*.5.t.t.< ",
"3 :.a.M.x.<.:.:.O.& * 1.R.m.S ^ H / ^ B ( ^ H Y ^ ^ G ^ D k.R.p.C q.W.b.S Y ^ / ^ M ^ ^ ( M ^ / G / D b.Q.r.4 & O.w.w.<.:.N.N.C ",
"< &.:.:.{ { { &.w & & ,.E.m.m.k.R.J.b.R.J.b.R.J.b.R.J.m.U.b.R.p.C 9.R.m.b.b.R.K.b.Y.K.b.Y.K.b.Y.b.J.R.k.Y.u.> & q ) ` w S ' [ 9 ",
"> 8 9 8 3 3 3 2 > @ @ &.W.J.b.-.R.b.u.R.z.r.R.z.u.R.b.r.L.b.R.u.9 9.E.m.k.9.Y.J.9.Y.m.9.Y.m.9.Y.k.u.Y.k.W.r.4 @ O # = 1 1 c = + ",
": b C m 3 5 C m : + @ &.R.m.%.' O...| O...| O.| | O.| | O.k.R.u.5 9.R.b.{ ' O...| ....' O.| | O.| | &.k.R.q.> @ +.t.t.y.t.y.f...",
"Z <.f.T.I.j.t.5.D @ @ &.Y.H.D g a g g p g g p a g g p g M k.R.u.3 9.Y.m.Z a g g g r g g g r g g p g A k.R.r., @ ,.:.<.:.:.:.e.#.",
"3 &.<.x.x.:.:.,.' @ @ &.W.m.D x l P P j P B.j x P P g P G k.E.u.3 9.R.m.Z l P B.P a P P P a L P k L T k.R.q., : { <.a.:.&.:.&.Z ",
"4 w { $.{ ) 9 6 > @ @ &.R.b.| P P D.Z.L D.D.l C.Z.S.k S.Y p.Y.u.3 1.R.m.D P D.S.Z.f Z.D.S.g C.S.P C.R z.R.1., @ 4 < < < < 3 3 > ",
"@ 4 6 8 1 1 1 1 & @ @ %.R.b.| P P S.Z.L D.D.l C.S.Z.l S.Y k.R.u.1 1.R.m.D P Z.Z.C.f Z.D.D.f C.S.P C.R z.R.9.* @ : < C T A C C > ",
": 5 A X.6.y.f.7...@ @ %.Y.b.| P P S.Z.L D.D.k C.D.Z.x D.Y k.Y.r.1 1.R.b.D P C.S.C.a S.D.D.f V.D.P B.E z.R.9.* & 4.j.x.s.N.x.N.O.",
"5 5.e.e.w.w.M.r...@ @ &.E.m.| P P S.Z.L D.S.k C.D.Z.L D.^ k.R.u.1 1.W.b.D P V.S.B.a S.S.D.f V.D.P P R z.Q.9.* @ ,.:.:.e.N.M.a.,.",
"3 &.&.&.&.{ &.{ 9 @ + O.R.b.| P P S.Z.L D.S.l C.D.Z.L D.^ k.Y.0.1 ,.Y.b.D C.S.Z.S.f S.S.D.f B.D.P P T k.R.9.* & S ] [ &.e.<.:.[ ",
"> 8 8 ` 0 8 6 2 > @ + { R.b.' Q Q C.! W A.C.z ! C.! K A.Y k.E.r., ,.R.z.D ~ C.A.! f C.C.C.f ~ A.Q Q D k.R.1.@ @ * > > 4 4 2 6 2 ",
": m > 1 m T 2.+.C @ + } R.b.k.t.n.x.f.n.j.f.N.j.f.n.l.f.b.z.E.r., &.R.m.p.d.n.x.f.N.x.f.n.l.d.n.f.f.b.k.R.1.@ @ 4 9 9 C S T X.D ",
"U w.r.t.t.i.w.w.#.& O O.R.m.b.$.Y.p.9.R.k.9.Y.k.9.Y.p.1.Y.b.R.r.= &.R.m.k.,.U.b.-.U.b.,.U.b.-.U.r.r.R.b.R.1.% @ +.s.x.j.a.e.s.e.",
"w :.:.:.&.` ` &.O.& O } R.m.u.&.p.r.1.k.q.1.p.r.1.k.9.1.p.k.R.r.= &.E.b.9.-.p.u.,.k.u.,.p.u.,.p.9.1.k.k.Y.1.@ @ D <.x.N.e.:.&.:.",
"6 w ] { { { [ ] 9 & O } R.m.' i r p p r p p r i p p r p A u.R.0.= &.R.z.D r p p p r p p p r p p r r T k.R.1.@ @ 1 _ _ ' q 8 w ) ",
"@ * * * @ * 1 , * @ O } R.b.| k j x l d x x a l x x a x H p.R.0.= &.R.b.D k x x x p x x x a x x j j R k.R.>.@ @ + @ * 3 3 3 > @ ",
"| d.=.O...7.d.=.| @ O } R.m.| P P S.V.x Z.D.j Z.S.Z.l D.Y p.R.1.= &.R.b.D B.D.S.S.a D.S.F.k S.S.I L R k.R.;.@ @ S 5.f.j.f.j.j.T ",
",.x.P.N.:.<.:.:.&.@ O | R.b.| P P S.C.x S.S.j Z.D.Z.l D.Y p.R.5.= &.R.b.D B.D.S.S.p D.S.G.l S.S.C.x R k.R.>.# & } :.<.x.M.a.:.:.",
"` { &.%.] ] ] ] ` @ # } Y.m.| P P D.C.l S.S.j S.D.Z.l F.Y p.R.5.$ &.E.b.D B.D.S.S.p D.S.G.l S.S.C.x R k.R.&.# & 9 { ] ` ` ` [ ` ",
"4 8 8 7 2 2 2 3 > @ O ' R.z.O.Y H ^ Y G ^ Y G Y ^ Y G ^ | p.E.5.$ %.R.b.o.Y ^ Y Y A ^ Y ^ G Y Y Y G O.k.R.*.O @ > < > , > , 1 , ",
"D X.X...T | +.#.C @ O | R.K.b.m.U.T.W.~.~.~.~.!.E.R.U.J.b.m.E.5.$ %.R.J.b.H.U.T.E.~.~.~.~.~.!.R.P.J.b.H.R.,.O @ m O.*.4.4.7.f.5.",
"t.a.d.M.N.e.7.:.U @ O ' R.Y.E.R.R.R.R.R.Y.R.R.R.R.R.R.R.R.R.Q.0.$ O.R.R.R.R.R.R.R.R.R.R.R.Y.W.W.R.E.R.R.R.,.O @ Z w.P.s.<.<.w.&."
};
