/* XPM */
static char *_73cabff3679483e862cbe6972b125b5mC3JNyEk8vezKWFQ[] = {
/* columns rows colors chars-per-pixel */
"64 64 22 1 ",
"  c None",
". c #221C1A",
"X c #73172D",
"o c #423934",
"O c #71413B",
"+ c #5A4E44",
"@ c #796755",
"# c #B4202A",
"$ c #DF3E23",
"% c #BB7547",
"& c #14A02E",
"* c #59C135",
"= c #A08662",
"- c #DBA463",
"; c #9CDB43",
": c #FFD541",
"> c #FFFC40",
", c #249FDE",
"< c #F4D29C",
"1 c #B3B9D1",
"2 c #FEF3C0",
"3 c white",
/* pixels */
"                                                                ",
"                                                                ",
"                               ..                               ",
"                           ....:+.                              ",
"                          .:>@@@+o.                             ",
"                         .+@@+++o..                             ",
"                        .o++o.......                            ",
"                    .....o...:>>>>>:.....                       ",
"                   .+@@@o.o+>>>>>>>>>>>>:.                      ",
"                  .+@@+@+o...o>>>>>>=>>>>:.                     ",
"                 .+@@+@+..%-%..o>>>>>=>>>=:.                    ",
"                .+@+++..-<<---%..:>>>>=>>>=:.                   ",
"               .o++@+.%<<<<<<---%..:>>>=>>>=:.                  ",
"               .++++.%--<<<<<<<---%.:>>>=>>>=:.                 ",
"              .o+++.%---<<<22<<<---%.:>>>=>>=>.                 ",
"              .+++o.-----<<<2<<<<<--%.:>>=>>=>:.                ",
"             .o+++.%-----<<<22<<<<<--%.:>>=>>=>.                ",
"             .+++o.-------<<<2<<<<<<%...:>=>>=>.                ",
"             .+++.%-------<<<22<<<-..%-%.:>=>>=:.               ",
"            .o++o.---%.....-<<2<<-.-<---%.>=>>=>.               ",
"            .+++.%--%.-<<<-.-<<<<<<--.....:>=>=>.               ",
"            .+++.-%..-<----<<<<<<<-.....1..>=>>=.               ",
"           .o++@.%.-<-....%-<<<<-<...&3..%.>=>>=:.              ",
"           .+++@.--%........-<<2.<31..*.%-.:=>>=>.              ",
"           .+++@.%.....&3.1.--<2.<<....%--%.>=>=>.              ",
"           .+++@.-%..1..*.3-<-<2.-<-----<--.>=>=>:.             ",
"          .o++@+.---%.....<<<--22.<<22<<<--.>=>=>>.             ",
"          .+++@+.--------22<<--<2.<<<22<<<-.:=>=>>.             ",
"          .+++@+.------<22<<<---2-2-<22<<<-%.>=>=:.             ",
"         .o+++@+.-----<<<<<<<-.--<2.<<<<<<--.>=>=.              ",
"         .++++@+.%----<<<<<<<-%.---.<<<<<<--.>=>=.              ",
"         .++++@+.%%----<<<<<<---<<<-<<<<<<<-.>=>=.              ",
"         .@@+@++.O%%----<<<<<<<<<<<<<<<<<<<-.>=>=.              ",
"        .+@@@=+@..O%%----<<<<<<<<<<<<<<<<<<-.:=>=.              ",
"        .@@@@=@+.%.%%----<<<<<-....-<<<<<<<-%.=>@.              ",
"        .@@@@=@.O-.O%%----<<-..XX##...-<<<<<..>=.               ",
"        .@@@@=@.%-%.%%----<<.XX....#.-<<<<<-..>=.               ",
"        .@@@@=@..O%.O%----<-...X#$#.-<<<<<<.o.>=.               ",
"        .=====@.o..o.------<<<-....-<<<<<<-.+.>=.               ",
"        .=>====.+ooo.%-------<<<<<<<<<<<<<.oo.>=.               ",
"        .=>>===.++ooo.%--------<<<<<<<<<<-.+.@>@.               ",
"        .=>>===.++ooo...%--------<<<<<<-..o+.=>.                ",
"        .>>>>=>.o++ooo.O..%---------<<-.%.o+.=>.                ",
"        .>>>>=>:.++ooo.%%O..%------%...%-%.o.=>.                ",
"        .>>>>=>>.+++oo.O%%%O........%-%.-<..@=>.                ",
"        .>>>>=>>.++++oo.%%%%%%%%O.%-.%%.-<..==:.                ",
"        .>>>>==>.++++oo.%%%%%%%%%.%--...-<.@==.                 ",
"        .>>>>==>.+++++o.%--%%%%%%O.-<...-<.===.                 ",
"        .>>>>==>.o+++++.-----%%--O.-<.%.-<.===.                 ",
"        .>>>=>=>:.+++++.-----%--%.%-<.%.-<.@==.                 ",
"        .>>>=>>=>.+++++.-----%-%..--<.O.-<-..@.                 ",
"        .>>>=>>=>.+++++.-------.O.--<-..---%..                  ",
"        .>>>=>>=>.+@+++.-------.O.--<<..--<<-.                  ",
"        .>>>=>>=>:.@@+@.%------%..%-<<-.<<<<<.  .....           ",
"       .:>>>=>>>=>.@@+@.<%%----%.O.-<<<-<<<<<.....%.%....       ",
"       .>>>=>>>>=>.@++@.<<<%%--%%..-<<<<<<<<<.%....%..%...      ",
"       .>>>=>>>>=>.@++@.<<<<<%-%-O.-<<<<<<<<<...%.:.,,.....     ",
"      ..>>>=>>>=>:.@++@.<<<<<%-%-%.-<<<<<<<<-......,,.,..%..    ",
"     .:.>>>=>>>=>.+@+++.<<<<<<%%-%.--<<<<<<<.%..,,,..,....%.    ",
"    .:>.>>>=>>>=>.@@++.-<<<<<<%%-%.%-<-<<<<<.......,..%..%.%.   ",
"    .>@.>>>=>>=>>.@++@...-<<<<---%%.-<-<<<<<.%..;.,.%...%.%..   ",
"   .:>.:>>=>>>=>:.@++@......-<<----.%<-<<<<<....;....%.%.%.%.   ",
"   .>=.>>>=>>>=>.+@+@+..%.....-----....%<<<-....;.;.....%.%.%.  ",
"  .:>@.>>>=>>=>:.@+++..%.%.%....%--.%%%........;.%.....%.%.%..  "
};
