/* XPM */
static char *d88b65043e3240c3b0ff96b59cb3e992owN8QuAln0aSWZN6[] = {
/* columns rows colors chars-per-pixel */
"64 64 190 2 ",
"   c None",
".  c black",
"X  c #261B0C",
"o  c #5A0102",
"O  c #5F2210",
"+  c #4B3419",
"@  c #60210F",
"#  c #622311",
"$  c #652816",
"%  c #6B2B13",
"&  c #662A19",
"*  c #692E1D",
"=  c #723217",
"-  c #7C3C1B",
";  c #773719",
":  c #6D3424",
">  c #6F3827",
",  c #733A27",
"<  c #5E401E",
"1  c #7E4C3D",
"2  c #784435",
"3  c #654621",
"4  c #313550",
"5  c #343E5B",
"6  c #2E3B6D",
"7  c #243D73",
"8  c #2A3C70",
"9  c #5D2F56",
"0  c #582F58",
"q  c #5E3056",
"w  c #70294D",
"e  c #7F2645",
"r  c #443462",
"t  c #0F437D",
"y  c #11447C",
"u  c #1B4B79",
"i  c #17497A",
"p  c #2B4F76",
"a  c #224B79",
"s  c #234375",
"d  c #2D5A71",
"f  c #215276",
"g  c #375374",
"h  c #3C6668",
"j  c #3C6769",
"k  c #75464E",
"l  c #4B586C",
"z  c #52656A",
"x  c #756A64",
"c  c #44445A",
"v  c #98170B",
"b  c #853118",
"n  c #9D1D36",
"m  c #AC182E",
"M  c #B91628",
"N  c #AC201D",
"B  c #D20E1B",
"V  c #DE0B15",
"C  c #CE0F1D",
"Z  c #EC0407",
"A  c #F30505",
"S  c #FF0204",
"D  c #F60408",
"F  c #FF0709",
"G  c #FE0A0B",
"H  c #FE0A07",
"J  c #FB1B0F",
"K  c #E10A13",
"L  c #FD0F11",
"P  c #FD1B1D",
"I  c #FE1416",
"U  c #FA2112",
"Y  c #F92A16",
"T  c #E2261E",
"R  c #FD1E20",
"E  c #FD2325",
"W  c #FD2C2D",
"Q  c #FD2827",
"!  c #FD2F31",
"~  c #FC3334",
"^  c #FB3A3B",
"/  c #82411E",
"(  c #8B4A22",
")  c #985628",
"_  c #8E5432",
"`  c #B16E32",
"'  c #A47035",
"]  c #BE7B38",
"[  c #B87636",
"{  c #AA672F",
"}  c #99632E",
"|  c #D8592A",
" . c #F54220",
".. c #F35628",
"X. c #C27D39",
"o. c #EF6E33",
"O. c #F16931",
"+. c #F16D3A",
"@. c #EC7638",
"#. c #F0723B",
"$. c #822F4A",
"%. c #D23B47",
"&. c #FC3F41",
"*. c #825244",
"=. c #87594B",
"-. c #8E5448",
";. c #8E6356",
":. c #8F7A5F",
">. c #91795E",
",. c #97644B",
"<. c #917563",
"1. c #A27E74",
"2. c #AF4F47",
"3. c #F94345",
"4. c #FB5D5E",
"5. c #FB5455",
"6. c #F8524B",
"7. c #F97A7A",
"8. c #FA6A6B",
"9. c #DB7951",
"0. c #6A8C56",
"q. c #BD843C",
"w. c #9AB33F",
"e. c #C78A3F",
"r. c #C8853D",
"t. c #ED823C",
"y. c #B6C934",
"u. c #F5FB16",
"i. c #F6FC19",
"p. c #DAE727",
"a. c #A58358",
"s. c #B58B57",
"d. c #BB9059",
"f. c #99B141",
"g. c #89A549",
"h. c #A3BA40",
"j. c #A58278",
"k. c #A7847B",
"l. c #9D815B",
"z. c #D38D40",
"x. c #D69042",
"c. c #DC9544",
"v. c #DE9845",
"b. c #D3984E",
"n. c #CD934E",
"m. c #E99946",
"M. c #E59F49",
"N. c #E99F48",
"B. c #E59946",
"V. c #EC8944",
"C. c #E7A049",
"Z. c #E8A149",
"A. c #E9A653",
"S. c #E9A959",
"D. c #EBAC63",
"F. c #ECB672",
"G. c #EDBA7C",
"H. c #ECB876",
"J. c #F48D76",
"K. c #174981",
"L. c #174A81",
"P. c #2B598B",
"I. c #315A88",
"U. c #3D6695",
"Y. c #476D99",
"T. c #496B91",
"R. c #587BA4",
"E. c #F37E80",
"W. c #AC8C83",
"Q. c #B2958B",
"!. c #B49A93",
"~. c #B7A894",
"^. c #BFA9A2",
"/. c #98969E",
"(. c #F88687",
"). c #F79495",
"_. c #F78F90",
"`. c #CEA392",
"'. c #EEBF85",
"]. c #F7B2B3",
"[. c #EECB9E",
"{. c #ECC595",
"}. c #EEC28B",
"|. c #F1D3AD",
" X c #F1D8B8",
".X c #ADBAC8",
"XX c #B4C1D1",
"oX c #F4E9DC",
"OX c #EEE6DB",
"+X c #F6F5F5",
/* pixels */
"                    +X+X+X].8.4.4.4.4.4.4.4.4.4.4.4.4.4.4.4.4.4.4.4.4.4.4.4.4.4.4.(.                                      +X+X+X",
"                        +X).R G H H G G F G F F G F G F F F F F G G F F F F F G G 6.                                            ",
"                        +X).P S S S S S S S S S S S S S S S S S S S S S S S S S S ^                                             ",
"                          ).I S S S S S S S S S S S S S S S S S S S S S S S S S S 3.].                        +X                ",
"                        ~ ! F S S S S S S S S S S S S S S S S S S S S S S S S S S I ~ ! E E Q ! W Q E ! ! ~ ^ &.^ ^             ",
"                3.F F F G F S S S S S S S S S S S S S S S S S S S S S S S S S S S F G G G G G G G G G L G G G L G I             ",
"              E.&.S S S S S S S S S S S S S S S S S S F S S S S S S S S S S S S S S S S S S F S S S S S S S S S S L P           ",
"              ).3.A A A A A A A A A A A A A A A A H H G H H G J H H H H A Z Z Z Z A H L H G G I L L L L L L L L L P Q           ",
"              `.2.v v v v v v v v v v v v v v v v O.O.O.O.O.O.O.o.O.O.| b o o o o v | o.O.O.+.#.7.5.5.5.                        ",
"              ^.*.@ @ @ @ @ @ @ @ @ @ @ @ @ @ @ = Z.Z.Z.Z.Z.Z.Z.Z.Z.Z.e.+ . . . . + q.C.Z.Z.S.}.                                ",
"              ^.=.@ @ @ @ @ @ @ @ @ @ @ @ @ @ @ = Z.Z.Z.Z.Z.Z.Z.Z.Z.Z.e.+ . . . . + q.Z.C.Z.S.G.                                ",
"              Q.,.- - - - = @ @ @ @ % = b - - / ( Z.Z.Z.Z.Z.N.Z.Z.Z.Z.e.+ . . . . + q.Z.C.C.A.F.  |. X X X                      ",
"            1 ,.` ] ] ] ] ) % @ @ @ % ) [ q.q.q.r.Z.Z.Z.Z.Z.Z.Z.Z.Z.Z.e.+ . . . . + q.Z.Z.Z.Z.D.G.'.G.G.G.F.S.                  ",
"    *.: @ @ # / X.Z.Z.C.C.` % @ @ @ = ` N.N.N.Z.Z.Z.Z.Z.Z.C.N.Z.Z.Z.Z.e.+ . . . . + q.Z.Z.Z.Z.C.Z.Z.Z.Z.Z.Z.Z.Z.                ",
"    *.: @ @ # - ] Z.C.C.C.` % @ @ @ = ` N.N.Z.Z.Z.Z.Z.Z.Z.N.Z.Z.Z.Z.Z.e.+ . . . . + q.Z.C.C.Z.C.Z.Z.Z.Z.Z.Z.Z.Z.Z.              ",
"    =.& @ @ O - r.Z.C.C.C.` % @ @ @ = { e.e.t.e.e.N.Z.Z.Z.Z.Z.Z.Z.Z.Z.e.3 X X X X < [ z.z.z.x.c.Z.Z.Z.Z.Z.Z.Z.Z.Z.Z.H. X      oX",
"    =.: @ @ @ b X.Z.Z.Z.C.` % @ @ @ @ ; ( ( ( ( ) C.C.Z.Z.Z.C.Z.Z.Z.Z.M.q.' ' ' ' ) ( ( ( / ) ` M.Z.Z.Z.Z.Z.Z.Z.C.Z.S.G.G.G.H.H.",
"    =.* @ @ O ( r.Z.Z.Z.C.` % @ @ @ @ @ @ @ @ @ = Z.C.Z.Z.Z.Z.Z.Z.Z.Z.Z.C.C.C.Z.Z.X.- @ @ @ % { M.Z.Z.Z.Z.Z.Z.Z.Z.Z.Z.Z.Z.Z.Z.Z.",
"    *.* @ @ O - r.Z.Z.C.Z.` % @ @ @ @ @ @ @ @ @ ; Z.Z.Z.Z.Z.Z.Z.Z.Z.Z.Z.C.C.Z.Z.Z.] - @ @ @ % ) C.C.Z.Z.Z.Z.Z.C.Z.Z.Z.C.Z.Z.Z.Z.",
"    *.* @ @ @ 2 ] v.v.B.c.` = % % % % % % % % % b Z.Z.Z.Z.Z.Z.Z.Z.Z.Z.Z.Z.e.v.B.v.[ ; @ @ @ % ) c.B.c.v.v.v.v.v.v.v.B.Z.Z.A.Z.Z.",
"    k * @ @ @ # % = = = = ) e.x.v.t.e.e.e.e.t.v.e.N.Z.Z.Z.C.C.C.Z.Z.Z.e.) ; = = = % @ @ @ @ @ % = = = = = = = = = , _           ",
"    _ * @ @ @ @ @ @ @ @ # ) B.C.Z.Z.A.Z.Z.Z.Z.Z.Z.Z.Z.Z.Z.Z.C.C.Z.Z.Z.t.( @ @ @ @ @ @ @ @ @ @ @ @ @ @ @ @ @ @ @ @ : ,           ",
"    1 * @ @ @ @ @ @ @ @ @ ) v.C.Z.Z.Z.Z.Z.Z.Z.Z.Z.Z.Z.Z.Z.Z.C.Z.Z.Z.Z.e./ @ @ @ @ @ @ @ @ @ @ @ @ @ @ @ @ @ @ @ @ & >           ",
"    =.> $ $ % %   & & & * ) v.C.Z.Z.Z.Z.Z.Z.Z.Z.Z.Z.Z.Z.Z.Z.Z.Z.Z.Z.Z.v.) % % % % % % % % % % % % % % % % & & & & :             ",
"                          {.S.C.Z.Z.Z.Z.Z.Z.Z.Z.Z.Z.Z.Z.Z.Z.Z.Z.Z.Z.Z.Z.e.t.v.x.z.x.x.x.x.x.e.c.e.e.t.e.b.`.                    ",
"                          |.A.C.Z.Z.Z.Z.Z.Z.Z.Z.Z.Z.Z.Z.Z.Z.Z.Z.Z.Z.Z.Z.Z.Z.Z.Z.Z.Z.Z.Z.Z.Z.Z.Z.A.Z.A.Z.S.                      ",
"                          |.A.Z.Z.Z.Z.Z.Z.Z.N.N.Z.Z.Z.Z.Z.Z.Z.Z.Z.Z.Z.Z.Z.Z.Z.Z.N.Z.Z.Z.Z.N.Z.Z.Z.Z.Z.Z.D. X                    ",
"                  _.(._.(.J.#.O.o.o.o.s.a.a.a.>.s.o.o.O.o.o.o.o.o.o.o.o.o.o.@.@.+.V.D.H.H.F.F.F.F.F.F.F.}.                      ",
"                  ~ ! ~ W Q U U U U T *.g g g g c U J U U U J U J U U U U U U U U 6.                                            ",
"                ~ S S S S S S S S S V w y y t y 6 F S S S S S S S S S S H S S S S &.                                            ",
"                ^ S S S S S S S S S V w y t t y 6 F S S S S S S S S S S S S S S S 3.                                            ",
"              5.W S S S S S S S S S K w y y t y 6 F S S S S S S S S S A C M M M M %.E.)._.(.        J.(._.(.E.7.7.              ",
"      ! R P Q E L S S S S S S S S S K w y t t y 6 F S S S S S S S S S K $.r r r r w 3.^ ^ ~ ! ~ ~ ^ ^ ^ ^ ^ ^ ^ ^ !             ",
"    ^ G S S S S S S S S S S S S S S K w y t t y 6 D S S S S S S S S S V 9 t t y t q C S S A S S S S S S S S S S F H             ",
"    &.L S S S S S S S S S S S S S S V w y t t y 6 A D S D D A D A D D B 0 t t t y q B S S S S S S S S S S S S S S G             ",
"E.8.! G S S S S S S S S S S S S S S K w t t t t 7 m m m m m m m m m m n r t t t y q B S S S S S S S S S S S S S S F             ",
"R R G F S S S S S S S S S S S S S S K w y t t t y 8 8 8 8 8 8 8 8 8 6 8 y t t t t q C S S S S S S S S S S S S S S F G I P P R E ",
"S S S S S S S S S S S S S S S S S S K w t t t t t t t t t t y t t t t t y y t t t q C S S S S S S S S S S S S S S S S S S S S G ",
"S F S S F F S S S S S S S S S D S S V w y y t t t t t t t t t t t t t t y y y y t 0 C S S S S S S S S S S S S S S S S F F D F G ",
"U U U U U U J J G S S S F Z B C B B M k h h h h h t t t t t t t t t t i d h h h j k M C B C B K S S S S S J U U U U U U U U U U ",
"Z.Z.Z.Z.Z.Z.Z.#.Y S S S S n 7 t y y d f.i.i.i.i.p.y t t t t t t t t t d h.u.u.i.i.y.z t y y 8 e S S S S J t.N.Z.Z.Z.Z.Z.Z.Z.Z.Z.",
"Z.Z.Z.Z.Z.Z.Z.@.Y S S S S n 7 t t t f f.u.u.u.u.p.y t t t t t t t t t d h.u.u.u.u.y.j t t t 8 e S S S S J @.N.Z.Z.Z.Z.Z.Z.Z.Z.A.",
"Z.Z.Z.Z.Z.Z.Z.@.Y F S S S m 7 t t t d f.u.u.u.i.p.y t t t t t t t t t d w.u.u.u.u.y.j y t t 8 $.D S F S U t.N.Z.Z.Z.Z.Z.Z.Z.Z.Z.",
"Z.Z.Z.Z.Z.Z.Z.t... . . . .-.7 t t t f 0.w.w.w.f.g.t t t t t t t t t y u 0.w.w.w.w.0.d t t t s k  . . . ...t.N.Z.Z.Z.Z.Z.Z.Z.Z.A.",
"Z.Z.Z.Z.Z.Z.Z.Z.N.N.m.m.m.>.a t t t t i u u u u u t t t t t t t t t t y i u u u f i y y t t f x B.m.m.m.m.N.Z.Z.Z.Z.Z.Z.Z.Z.Z.Z.",
"Z.Z.Z.Z.Z.Z.Z.Z.Z.Z.N.N.M.>.u t t t t t y t t t t t t t t t t t t t t t t y t t t y t t t t f x C.Z.Z.Z.Z.Z.Z.Z.Z.Z.Z.Z.Z.Z.Z.A.",
"Z.Z.Z.Z.Z.Z.Z.Z.Z.Z.Z.N.N.>.u y t t t t t t t t t t t t t t t t t t t t t t t t t t t t t t f x C.Z.Z.Z.Z.Z.Z.Z.Z.Z.Z.Z.Z.Z.Z.Z.",
"Z.Z.Z.Z.Z.Z.Z.b.a.:.>.>.>.z u t t t t t t t t t t t t t t t t t t t t t t t t t t t t t t t i l :.:.:.:.a.b.Z.Z.Z.Z.Z.Z.Z.Z.Z.Z.",
"Z.Z.Z.Z.Z.Z.Z.s.z p p p p u y t t t t t t t t t t t t t t t t t t t t t t t t t t t t t t t y u p p p p l d.M.C.C.Z.Z.Z.Z.Z.Z.Z.",
"C.Z.Z.Z.M.M.Z.s.l y t t t t t t t t t t t t t t t t t t t t t t t t t t t t t t t t t t t t t t t t t t g d.M.C.Z.Z.Z.Z.Z.Z.Z.A.",
"Z.A.Z.Z.A.A.S.d.l t t t t t t t t t t t t t t t t K.K.K.K.K.K.K.K.K.K.K.y t t t t t t t t t t t t t t t g s.A.A.Z.A.Z.Z.A.A.A.A.",
"H.H.H.G.'.{.[.~.T.t t t t t t t t t t t t t t t K.R.Y.                P.P.t t t t t t t t t t t t t t t I.~.[.[.[.[.|.[.{.{.}.}.",
"              /.T.t t t t t t t t t t t t t t t K.                      R.t t t t t t t t t t t t t t t I..XOXoXoXoXoX          ",
"                Y.t t t t t t t t y t t t t t t L.                      R.y t t t t t t t t t t t t t t P..X                    ",
"                Y.y t y y y y t y y y K.t t t K.L.                      R.y t t t t y y y y t t t t t y I.XX                    ",
"        *.=.;.x l 4 4 4 4 4 4 4 4 4 5 g U.P.P.K.                        R.y y P.P.I.5 4 4 4 4 4 4 4 4 4 c W.!.!.Q.j.            ",
"    *.* # @ # # @ @ @ @ @ # @ # @ O : <.                                            : @ O O O O O O O O O O @ # @ % 2           ",
"    *.* @ @ @ @ @ @ @ @ @ @ @ @ @ @ : ;.                                            & @ @ @ @ @ @ @ @ @ @ @ @ @ # & ;.          ",
"    k % @ @ @ @ @ @ @ @ @ @ @ @ @ @ : ;.                                            @ @ @ @ @ @ @ @ @ @ @ @ @ @ @ & =.          ",
"    : $ @ @ @ @ @ @ @ @ @ @ @ @ # O : ;.                                            @ @ @ @ @ @ @ @ @ @ @ @ @ @ @ $ 1 1.k.1.W.W.",
"@ @ @ @ @ @ @ @ @ @ @ @ @ @ @ @ O @ : 1                                             # @ @ @ @ @ @ @ @ @ @ @ @ @ @ @ @ @ @ @ @ $ ",
"@ @ @ @ @ @ @ @ @ @ @ @ @ @ @ @ O O : 2                                             O @ @ @ @ @ @ @ @ @ @ @ @ @ @ @ @ @ @ @ @ $ ",
"$ $ % & $ $ $ & $ $ $ $ $ $ $ $ $ $ , 1                                             $ $ $ $ $ $ $ $ $ $ $ $ $ $ $ $ & $ $ $ $ * ",
"j.j.j.k.j.j.j.1.j.j.k.k.1.j.j.j.j.k.W.Q.                                            k.j.j.j.k.1.k.k.1.k.j.j.j.j.j.j.1.j.j.j.k.k."
};
