/* XPM */
static char *_e81ff6cfb5f437fb11cb2d693b37857DfQEBw2PKXxu9IjS[] = {
/* columns rows colors chars-per-pixel */
"64 64 4 1 ",
"  c #2F2E2F",
". c #85578E",
"X c #564064",
"o c #3E2F5A",
/* pixels */
"   ..............................      ......................   ",
"   ..............................      ......................   ",
" ....................XXXX..........  ............XXXX.......... ",
" ....................XXXX..........  ............XXXX.......... ",
" ....XXXX..XXXXXX..XXXXXXXX..XX....  ....XX..XXXXXXXXXX..XX.... ",
" ....XXXX..XXXXXX..XXXXXXXX..XX....  ....XX..XXXXXXXXXX..XX.... ",
" ..ooXXXXXXXXooXXXXXXooooooXXXXoo..  ..ooXXXXXXXXooooXXXXXXoo.. ",
" ..ooXXXXXXXXooXXXXXXooooooXXXXoo..  ..ooXXXXXXXXooooXXXXXXoo.. ",
" ooooooXXXXooooooXXXXXXXXXXXXoooooo  ooooooXXXXooooXXXXXXoooooo ",
" ooooooXXXXooooooXXXXXXXXXXXXoooooo  ooooooXXXXooooXXXXXXoooooo ",
" ooooooooooooooooooooooXXXXoooooooo  oooooooooooooooooooooooooo ",
" ooooooooooooooooooooooXXXXoooooooo  oooooooooooooooooooooooooo ",
"   oooooooooooooooooooooooooooooo      oooooooooooooooooooooo   ",
"   oooooooooooooooooooooooooooooo      oooooooooooooooooooooo   ",
"                                                                ",
"                                                                ",
"...........      ........................      .................",
"...........      ........................      .................",
".....XX......  ............XX..............  ......XX...........",
".....XX......  ............XX..............  ......XX...........",
"X..XXXXXX....  ....XXXX..XXXXXXXX..XXXX....  ....XXXXXXXX..XXXXX",
"X..XXXXXX....  ....XXXX..XXXXXXXX..XXXX....  ....XXXXXXXX..XXXXX",
"XooXXXXXXXX..  ..XXXXXXXXXXooXXXXooXXXXXX..  ..XXXXooXXXXXXXXXXX",
"XooXXXXXXXX..  ..XXXXXXXXXXooXXXXooXXXXXX..  ..XXXXooXXXXXXXXXXX",
"XXXooXXXXXXoo  ooXXXXXXXXooooXXXXXXooXXXXoo  ooXXXXXXooXXXXooooX",
"XXXooXXXXXXoo  ooXXXXXXXXooooXXXXXXooXXXXoo  ooXXXXXXooXXXXooooX",
"XXXooooXXoooo  ooooXXooooooXXXXooXXXXXXoooo  ooooXXXXXXXXooooXXX",
"XXXooooXXoooo  ooooXXooooooXXXXooXXXXXXoooo  ooooXXXXXXXXooooXXX",
"Xoooooooooooo  ooooooooooooooooooooXXoooooo  ooooooXXooooooooooX",
"Xoooooooooooo  ooooooooooooooooooooXXoooooo  ooooooXXooooooooooX",
"ooooooooooo      oooooooooooooooooooooooo      ooooooooooooooooo",
"ooooooooooo      oooooooooooooooooooooooo      ooooooooooooooooo",
"                                                                ",
"                                                                ",
".      ........................      ...........................",
".      ........................      ...........................",
"...  ............XX......XX......  ................XX...........",
"...  ............XX......XX......  ................XX...........",
"...  ....XXXX..XXXXXX..XXXXXX....  ....XXXX..XXXXXXXXXXXX..XXXX.",
"...  ....XXXX..XXXXXX..XXXXXX....  ....XXXX..XXXXXXXXXXXX..XXXX.",
"o..  ..ooXXXXXXXXXXXXooXXXXXXoo..  ..ooXXXXXXXXXXXXooXXooXXXXXXo",
"o..  ..ooXXXXXXXXXXXXooXXXXXXoo..  ..ooXXXXXXXXXXXXooXXooXXXXXXo",
"ooo  ooooooXXooooXXXXXXXXXXoooooo  ooooooXXXXXXXXooooXXXXXXXXooo",
"ooo  ooooooXXooooXXXXXXXXXXoooooo  ooooooXXXXXXXXooooXXXXXXXXooo",
"ooo  ooooooooooooooooooXXoooooooo  ooooooooXXooooooooooooXXooooo",
"ooo  ooooooooooooooooooXXoooooooo  ooooooooXXooooooooooooXXooooo",
"o      oooooooooooooooooooooooo      ooooooooooooooooooooooooooo",
"o      oooooooooooooooooooooooo      ooooooooooooooooooooooooooo",
"                                                                ",
"                                                                ",
"...............      ............................      .........",
"...............      ............................      .........",
".XX..............  ............XX......XX..........  ...........",
".XX..............  ............XX......XX..........  ...........",
"XXXXX..XXXXXX....  ....XXXX..XXXXXX..XXXXXXXXXXXX..  ..XXXX..XXX",
"XXXXX..XXXXXX....  ....XXXX..XXXXXX..XXXXXXXXXXXX..  ..XXXX..XXX",
"XooXXXXXXXXoooo..  ..ooooXXXXXXXXXXXXXXXXXXXXooXXXX  XXXXXXXXXXX",
"XooXXXXXXXXoooo..  ..ooooXXXXXXXXXXXXXXXXXXXXooXXXX  XXXXXXXXXXX",
"ooooooooooooooooo  ooooooooooooXXXXoooooooooooooooo  ooooooooooo",
"ooooooooooooooooo  ooooooooooooXXXXoooooooooooooooo  ooooooooooo",
"ooooooooooooooo      oooooooooooooooooooooooooooo      ooooooooo",
"ooooooooooooooo      oooooooooooooooooooooooooooo      ooooooooo",
"                                                                ",
"                                                                "
};
